{
	"asset":{
		"generator":"Khronos glTF Blender I/O v4.0.43",
		"version":"2.0"
	},
	"scene":0,
	"scenes":[
		{
			"name":"Scene",
			"nodes":[
				0
			]
		}
	],
	"nodes":[
		{
			"mesh":0,
			"name":"Cylinder"
		}
	],
	"materials":[
		{
			"doubleSided":true,
			"name":"Tree",
			"pbrMetallicRoughness":{
				"baseColorFactor":[
					0.16067716479301453,
					0.08935889601707458,
					0.053848784416913986,
					1
				],
				"metallicFactor":0,
				"roughnessFactor":0.5
			}
		},
		{
			"doubleSided":true,
			"name":"Leaf",
			"pbrMetallicRoughness":{
				"baseColorFactor":[
					0.18849974870681763,
					0.8005127906799316,
					0.18585772812366486,
					1
				],
				"metallicFactor":0,
				"roughnessFactor":0.5
			}
		}
	],
	"meshes":[
		{
			"name":"Cylinder",
			"primitives":[
				{
					"attributes":{
						"POSITION":0,
						"NORMAL":1,
						"TEXCOORD_0":2
					},
					"indices":3,
					"material":0
				},
				{
					"attributes":{
						"POSITION":4,
						"NORMAL":5,
						"TEXCOORD_0":6
					},
					"indices":7,
					"material":1
				}
			]
		}
	],
	"accessors":[
		{
			"bufferView":0,
			"componentType":5126,
			"count":1926,
			"max":[
				4.3146209716796875,
				11.451205253601074,
				1.8543498516082764
			],
			"min":[
				-1.850736141204834,
				-1.0005043745040894,
				-2.5402493476867676
			],
			"type":"VEC3"
		},
		{
			"bufferView":1,
			"componentType":5126,
			"count":1926,
			"type":"VEC3"
		},
		{
			"bufferView":2,
			"componentType":5126,
			"count":1926,
			"type":"VEC2"
		},
		{
			"bufferView":3,
			"componentType":5123,
			"count":2976,
			"type":"SCALAR"
		},
		{
			"bufferView":4,
			"componentType":5126,
			"count":1680,
			"max":[
				5.912483215332031,
				14.489415168762207,
				5.328152656555176
			],
			"min":[
				-4.77254581451416,
				2.9874813556671143,
				-5.055997371673584
			],
			"type":"VEC3"
		},
		{
			"bufferView":5,
			"componentType":5126,
			"count":1680,
			"type":"VEC3"
		},
		{
			"bufferView":6,
			"componentType":5126,
			"count":1680,
			"type":"VEC2"
		},
		{
			"bufferView":7,
			"componentType":5123,
			"count":1680,
			"type":"SCALAR"
		}
	],
	"bufferViews":[
		{
			"buffer":0,
			"byteLength":23112,
			"byteOffset":0,
			"target":34962
		},
		{
			"buffer":0,
			"byteLength":23112,
			"byteOffset":23112,
			"target":34962
		},
		{
			"buffer":0,
			"byteLength":15408,
			"byteOffset":46224,
			"target":34962
		},
		{
			"buffer":0,
			"byteLength":5952,
			"byteOffset":61632,
			"target":34963
		},
		{
			"buffer":0,
			"byteLength":20160,
			"byteOffset":67584,
			"target":34962
		},
		{
			"buffer":0,
			"byteLength":20160,
			"byteOffset":87744,
			"target":34962
		},
		{
			"buffer":0,
			"byteLength":13440,
			"byteOffset":107904,
			"target":34962
		},
		{
			"buffer":0,
			"byteLength":3360,
			"byteOffset":121344,
			"target":34963
		}
	],
	"buffers":[
		{
			"byteLength":124704,
			"uri":"Tree2.bin"
		}
	]
}
