{
	"asset":{
		"generator":"Khronos glTF Blender I/O v4.0.43",
		"version":"2.0"
	},
	"scene":0,
	"scenes":[
		{
			"name":"Scene",
			"nodes":[
				0
			]
		}
	],
	"nodes":[
		{
			"mesh":0,
			"name":"Cylinder"
		}
	],
	"materials":[
		{
			"doubleSided":true,
			"name":"Tree",
			"pbrMetallicRoughness":{
				"baseColorFactor":[
					0.16067716479301453,
					0.08935889601707458,
					0.053848784416913986,
					1
				],
				"metallicFactor":0,
				"roughnessFactor":0.5
			}
		},
		{
			"doubleSided":true,
			"name":"Leaf",
			"pbrMetallicRoughness":{
				"baseColorFactor":[
					0.18849974870681763,
					0.8005127906799316,
					0.18585772812366486,
					1
				],
				"metallicFactor":0,
				"roughnessFactor":0.5
			}
		}
	],
	"meshes":[
		{
			"name":"Cylinder",
			"primitives":[
				{
					"attributes":{
						"POSITION":0,
						"NORMAL":1,
						"TEXCOORD_0":2
					},
					"indices":3,
					"material":0
				},
				{
					"attributes":{
						"POSITION":4,
						"NORMAL":5,
						"TEXCOORD_0":6
					},
					"indices":7,
					"material":1
				}
			]
		}
	],
	"accessors":[
		{
			"bufferView":0,
			"componentType":5126,
			"count":1928,
			"max":[
				3.2555055618286133,
				11.25831413269043,
				1.659225583076477
			],
			"min":[
				-2.9075489044189453,
				0.12254893779754639,
				-2.93192195892334
			],
			"type":"VEC3"
		},
		{
			"bufferView":1,
			"componentType":5126,
			"count":1928,
			"type":"VEC3"
		},
		{
			"bufferView":2,
			"componentType":5126,
			"count":1928,
			"type":"VEC2"
		},
		{
			"bufferView":3,
			"componentType":5123,
			"count":2976,
			"type":"SCALAR"
		},
		{
			"bufferView":4,
			"componentType":5126,
			"count":1680,
			"max":[
				5.269078254699707,
				13.983972549438477,
				5.33743953704834
			],
			"min":[
				-4.860253810882568,
				3.979053020477295,
				-5.055997371673584
			],
			"type":"VEC3"
		},
		{
			"bufferView":5,
			"componentType":5126,
			"count":1680,
			"type":"VEC3"
		},
		{
			"bufferView":6,
			"componentType":5126,
			"count":1680,
			"type":"VEC2"
		},
		{
			"bufferView":7,
			"componentType":5123,
			"count":1680,
			"type":"SCALAR"
		}
	],
	"bufferViews":[
		{
			"buffer":0,
			"byteLength":23136,
			"byteOffset":0,
			"target":34962
		},
		{
			"buffer":0,
			"byteLength":23136,
			"byteOffset":23136,
			"target":34962
		},
		{
			"buffer":0,
			"byteLength":15424,
			"byteOffset":46272,
			"target":34962
		},
		{
			"buffer":0,
			"byteLength":5952,
			"byteOffset":61696,
			"target":34963
		},
		{
			"buffer":0,
			"byteLength":20160,
			"byteOffset":67648,
			"target":34962
		},
		{
			"buffer":0,
			"byteLength":20160,
			"byteOffset":87808,
			"target":34962
		},
		{
			"buffer":0,
			"byteLength":13440,
			"byteOffset":107968,
			"target":34962
		},
		{
			"buffer":0,
			"byteLength":3360,
			"byteOffset":121408,
			"target":34963
		}
	],
	"buffers":[
		{
			"byteLength":124768,
			"uri":"Tree3.bin"
		}
	]
}
