{
	"asset":{
		"generator":"Khronos glTF Blender I/O v4.0.43",
		"version":"2.0"
	},
	"scene":0,
	"scenes":[
		{
			"name":"Scene",
			"nodes":[
				0
			]
		}
	],
	"nodes":[
		{
			"mesh":0,
			"name":"Cube",
			"scale":[
				0.2765750288963318,
				1,
				1
			]
		}
	],
	"materials":[
		{
			"doubleSided":true,
			"name":"HouseBody",
			"pbrMetallicRoughness":{
				"baseColorFactor":[
					0.023404436185956,
					0.08251887559890747,
					0.021117474883794785,
					1
				],
				"metallicFactor":0,
				"roughnessFactor":0.5
			}
		},
		{
			"doubleSided":true,
			"name":"HouseRoof",
			"pbrMetallicRoughness":{
				"baseColorFactor":[
					0.37707746028900146,
					0.052355021238327026,
					0.0074670882895588875,
					1
				],
				"metallicFactor":0,
				"roughnessFactor":0.5
			}
		}
	],
	"meshes":[
		{
			"name":"Cube",
			"primitives":[
				{
					"attributes":{
						"POSITION":0,
						"NORMAL":1,
						"TEXCOORD_0":2
					},
					"indices":3,
					"material":0
				},
				{
					"attributes":{
						"POSITION":4,
						"NORMAL":5,
						"TEXCOORD_0":6
					},
					"indices":7,
					"material":1
				}
			]
		}
	],
	"accessors":[
		{
			"bufferView":0,
			"componentType":5126,
			"count":26,
			"max":[
				1.4159036874771118,
				1,
				1
			],
			"min":[
				-1.4159036874771118,
				-0.7320115566253662,
				-1
			],
			"type":"VEC3"
		},
		{
			"bufferView":1,
			"componentType":5126,
			"count":26,
			"type":"VEC3"
		},
		{
			"bufferView":2,
			"componentType":5126,
			"count":26,
			"type":"VEC2"
		},
		{
			"bufferView":3,
			"componentType":5123,
			"count":48,
			"type":"SCALAR"
		},
		{
			"bufferView":4,
			"componentType":5126,
			"count":46,
			"max":[
				1.4159036874771118,
				2.547769784927368,
				1.4295158386230469
			],
			"min":[
				-1.4159036874771118,
				1,
				-1.4295158386230469
			],
			"type":"VEC3"
		},
		{
			"bufferView":5,
			"componentType":5126,
			"count":46,
			"type":"VEC3"
		},
		{
			"bufferView":6,
			"componentType":5126,
			"count":46,
			"type":"VEC2"
		},
		{
			"bufferView":7,
			"componentType":5123,
			"count":84,
			"type":"SCALAR"
		}
	],
	"bufferViews":[
		{
			"buffer":0,
			"byteLength":312,
			"byteOffset":0,
			"target":34962
		},
		{
			"buffer":0,
			"byteLength":312,
			"byteOffset":312,
			"target":34962
		},
		{
			"buffer":0,
			"byteLength":208,
			"byteOffset":624,
			"target":34962
		},
		{
			"buffer":0,
			"byteLength":96,
			"byteOffset":832,
			"target":34963
		},
		{
			"buffer":0,
			"byteLength":552,
			"byteOffset":928,
			"target":34962
		},
		{
			"buffer":0,
			"byteLength":552,
			"byteOffset":1480,
			"target":34962
		},
		{
			"buffer":0,
			"byteLength":368,
			"byteOffset":2032,
			"target":34962
		},
		{
			"buffer":0,
			"byteLength":168,
			"byteOffset":2400,
			"target":34963
		}
	],
	"buffers":[
		{
			"byteLength":2568,
			"uri":"House.bin"
		}
	]
}
