{
	"asset":{
		"generator":"Khronos glTF Blender I/O v4.1.63",
		"version":"2.0"
	},
	"scene":0,
	"scenes":[
		{
			"name":"Scene",
			"nodes":[
				0
			]
		}
	],
	"nodes":[
		{
			"mesh":0,
			"name":"Telephone Pole",
			"scale":[
				0.5247731804847717,
				1,
				0.5247731804847717
			]
		}
	],
	"materials":[
		{
			"doubleSided":true,
			"name":"Pole",
			"pbrMetallicRoughness":{
				"baseColorFactor":[
					0.0045769535936415195,
					0.0045769535936415195,
					0.0045769535936415195,
					1
				],
				"metallicFactor":0,
				"roughnessFactor":0.5
			}
		},
		{
			"doubleSided":true,
			"name":"Cross",
			"pbrMetallicRoughness":{
				"baseColorFactor":[
					0.020395945757627487,
					0.009641312062740326,
					0.009390602819621563,
					1
				],
				"metallicFactor":0,
				"roughnessFactor":0.5
			}
		}
	],
	"meshes":[
		{
			"name":"Cylinder",
			"primitives":[
				{
					"attributes":{
						"POSITION":0,
						"NORMAL":1,
						"TEXCOORD_0":2
					},
					"indices":3,
					"material":0
				},
				{
					"attributes":{
						"POSITION":4,
						"NORMAL":5,
						"TEXCOORD_0":6
					},
					"indices":7,
					"material":1
				}
			]
		}
	],
	"accessors":[
		{
			"bufferView":0,
			"componentType":5126,
			"count":130,
			"max":[
				1,
				12.768917083740234,
				1
			],
			"min":[
				-1,
				-0.33528661727905273,
				-1
			],
			"type":"VEC3"
		},
		{
			"bufferView":1,
			"componentType":5126,
			"count":130,
			"type":"VEC3"
		},
		{
			"bufferView":2,
			"componentType":5126,
			"count":130,
			"type":"VEC2"
		},
		{
			"bufferView":3,
			"componentType":5123,
			"count":372,
			"type":"SCALAR"
		},
		{
			"bufferView":4,
			"componentType":5126,
			"count":780,
			"max":[
				6.861715316772461,
				11.675586700439453,
				6.861715316772461
			],
			"min":[
				-6.861715316772461,
				6.948991775512695,
				-6.861715316772461
			],
			"type":"VEC3"
		},
		{
			"bufferView":5,
			"componentType":5126,
			"count":780,
			"type":"VEC3"
		},
		{
			"bufferView":6,
			"componentType":5126,
			"count":780,
			"type":"VEC2"
		},
		{
			"bufferView":7,
			"componentType":5123,
			"count":2232,
			"type":"SCALAR"
		}
	],
	"bufferViews":[
		{
			"buffer":0,
			"byteLength":1560,
			"byteOffset":0,
			"target":34962
		},
		{
			"buffer":0,
			"byteLength":1560,
			"byteOffset":1560,
			"target":34962
		},
		{
			"buffer":0,
			"byteLength":1040,
			"byteOffset":3120,
			"target":34962
		},
		{
			"buffer":0,
			"byteLength":744,
			"byteOffset":4160,
			"target":34963
		},
		{
			"buffer":0,
			"byteLength":9360,
			"byteOffset":4904,
			"target":34962
		},
		{
			"buffer":0,
			"byteLength":9360,
			"byteOffset":14264,
			"target":34962
		},
		{
			"buffer":0,
			"byteLength":6240,
			"byteOffset":23624,
			"target":34962
		},
		{
			"buffer":0,
			"byteLength":4464,
			"byteOffset":29864,
			"target":34963
		}
	],
	"buffers":[
		{
			"byteLength":34328,
			"uri":"Telephone%20Pole.bin"
		}
	]
}
