{
	"asset":{
		"generator":"Khronos glTF Blender I/O v4.0.43",
		"version":"2.0"
	},
	"scene":0,
	"scenes":[
		{
			"name":"Scene",
			"nodes":[
				0
			]
		}
	],
	"nodes":[
		{
			"mesh":0,
			"name":"Cylinder"
		}
	],
	"materials":[
		{
			"doubleSided":true,
			"name":"Tree",
			"pbrMetallicRoughness":{
				"baseColorFactor":[
					0.16067716479301453,
					0.08935889601707458,
					0.053848784416913986,
					1
				],
				"metallicFactor":0,
				"roughnessFactor":0.5
			}
		},
		{
			"doubleSided":true,
			"name":"Leaf",
			"pbrMetallicRoughness":{
				"baseColorFactor":[
					0.18849974870681763,
					0.8005127906799316,
					0.18585772812366486,
					1
				],
				"metallicFactor":0,
				"roughnessFactor":0.5
			}
		}
	],
	"meshes":[
		{
			"name":"Cylinder",
			"primitives":[
				{
					"attributes":{
						"POSITION":0,
						"NORMAL":1,
						"TEXCOORD_0":2
					},
					"indices":3,
					"material":0
				},
				{
					"attributes":{
						"POSITION":4,
						"NORMAL":5,
						"TEXCOORD_0":6
					},
					"indices":7,
					"material":1
				}
			]
		}
	],
	"accessors":[
		{
			"bufferView":0,
			"componentType":5126,
			"count":1704,
			"max":[
				2.6808762550354004,
				12.529542922973633,
				1.9108847379684448
			],
			"min":[
				-3.5127015113830566,
				-1,
				-2.3152620792388916
			],
			"type":"VEC3"
		},
		{
			"bufferView":1,
			"componentType":5126,
			"count":1704,
			"type":"VEC3"
		},
		{
			"bufferView":2,
			"componentType":5126,
			"count":1704,
			"type":"VEC2"
		},
		{
			"bufferView":3,
			"componentType":5123,
			"count":2976,
			"type":"SCALAR"
		},
		{
			"bufferView":4,
			"componentType":5126,
			"count":1680,
			"max":[
				5.673168182373047,
				15.724981307983398,
				5.364790916442871
			],
			"min":[
				-5.265448093414307,
				3.1688344478607178,
				-5.310879707336426
			],
			"type":"VEC3"
		},
		{
			"bufferView":5,
			"componentType":5126,
			"count":1680,
			"type":"VEC3"
		},
		{
			"bufferView":6,
			"componentType":5126,
			"count":1680,
			"type":"VEC2"
		},
		{
			"bufferView":7,
			"componentType":5123,
			"count":1680,
			"type":"SCALAR"
		}
	],
	"bufferViews":[
		{
			"buffer":0,
			"byteLength":20448,
			"byteOffset":0,
			"target":34962
		},
		{
			"buffer":0,
			"byteLength":20448,
			"byteOffset":20448,
			"target":34962
		},
		{
			"buffer":0,
			"byteLength":13632,
			"byteOffset":40896,
			"target":34962
		},
		{
			"buffer":0,
			"byteLength":5952,
			"byteOffset":54528,
			"target":34963
		},
		{
			"buffer":0,
			"byteLength":20160,
			"byteOffset":60480,
			"target":34962
		},
		{
			"buffer":0,
			"byteLength":20160,
			"byteOffset":80640,
			"target":34962
		},
		{
			"buffer":0,
			"byteLength":13440,
			"byteOffset":100800,
			"target":34962
		},
		{
			"buffer":0,
			"byteLength":3360,
			"byteOffset":114240,
			"target":34963
		}
	],
	"buffers":[
		{
			"byteLength":117600,
			"uri":"Tree1.bin"
		}
	]
}
